# AST/ASF file generated using VICON BodyLanguage
# -----------------------------------------------
:version 1.10
:name VICON
:units
  mass 1.0
  length 0.45
  angle deg
:documentation
   .ast/.asf automatically generated from VICON data using
   VICON BodyBuilder and BodyLanguage model FoxedUp or BRILLIANT.MOD
:root
   order TX TY TZ RX RY RZ
   axis XYZ
   position 0 0 0  
   orientation 0 0 0 
:bonedata
  begin
     id 1 
     name lhipjoint
     direction 0.558404 -0.748506 0.357664 
     length 2.4234 
     axis 0 0 0  XYZ
  end
  begin
     id 2 
     name lfemur
     direction 0.34202 -0.939693 0  
     length 7.14567  
     axis 0 0 20  XYZ
    dof rx ry rz
    limits (-160.0 20.0)
           (-70.0 70.0)
           (-60.0 70.0)
  end
  begin
     id 3 
     name ltibia
     direction 0.34202 -0.939693 0   
     length 8.13956   
     axis 0 0 20   XYZ
    dof rx
    limits (-10.0 170.0)
  end
  begin
     id 4 
     name lfoot
     direction 0.0791314 -0.217412 0.972867   
     length 2.00134   
     axis -90 7.62852e-016 20   XYZ
    dof rx rz
    limits (-45.0 90.0)
           (-70.0 20.0)
  end
  begin
     id 5 
     name ltoes
     direction 1.53547e-011 -4.21922e-011 1   
     length 1.00735   
     axis -90 7.62852e-016 20   XYZ
    dof rx
    limits (-90.0 20.0)
  end
  begin
     id 6 
     name rhipjoint
     direction -0.496392 -0.78327 0.374276   
     length 2.31584  
     axis 0 0 0  XYZ 
  end
  begin
     id 7 
     name rfemur
     direction -0.34202 -0.939693 0   
     length 7.47417   
     axis 0 0 -20   XYZ
    dof rx ry rz
    limits (-160.0 20.0)
           (-70.0 70.0)
           (-70.0 60.0)
  end
  begin
     id 8 
     name rtibia
     direction -0.34202 -0.939693 0   
     length 7.69071   
     axis 0 0 -20   XYZ
    dof rx
    limits (-10.0 170.0)
 end
 begin
     id 9 
     name rfoot
     direction -0.103069 -0.28318 0.953512   
     length 2.16135  
     axis -90 -7.62852e-016 -20   XYZ
    dof rx rz
    limits (-45.0 90.0)
           (-20.0 70.0)
  end
  begin
     id 10 
     name rtoes
     direction -1.53581e-011 -4.21904e-011 1   
     length 1.07867   
     axis -90 -7.62852e-016 -20   XYZ
    dof rx
    limits (-90.0 20.0)
  end
  begin
     id 11 
     name lowerback
     direction -0.0258961 0.994776 -0.0987407   
     length 2.19412   
     axis 0 0 0   XYZ
    dof rx ry rz
    limits (-20.0 45.0)
           (-30.0 30.0)
           (-30.0 30.0)
  end
  begin
     id 12 
     name upperback
     direction 0.0402454 0.999185 0.00320666   
     length 2.18445   
     axis 0 0 0   XYZ
    dof rx ry rz
    limits (-20.0 45.0)
           (-30.0 30.0)
           (-30.0 30.0)
  end
  begin
     id 13 
     name thorax
     direction 0.0519376 0.997415 0.0496558   
     length 2.21487   
     axis 0 0 0   XYZ
    dof rx ry rz
    limits (-20.0 45.0)
           (-30.0 30.0)
           (-30.0 30.0)
  end
  begin
     id 14 
     name lowerneck
     direction -0.0921276 0.983211 0.157506   
     length 1.61201   
     axis 0 0 0   XYZ
    dof rx ry rz
    limits (-20.0 45.0)
           (-30.0 30.0)
           (-30.0 30.0)
  end
  begin
     id 15 
     name upperneck
     direction 0.0820814 0.98162 -0.172292   
     length 1.65275   
     axis 0 0 0   XYZ
    dof rx ry rz
    limits (-20.0 45.0)
           (-30.0 30.0)
           (-30.0 30.0)
  end
  begin
     id 16
     name head
     direction 0.0336554 0.996413 -0.0776455  
     length 1.66415  
     axis 0 0 0   XYZ
    dof rx ry rz
    limits (-20.0 45.0)
           (-30.0 30.0)
           (-30.0 30.0)
  end
  begin
     id 17 
     name lclavicle
     direction 0.94696 0.284418 -0.149576  
     length 3.41447  
     axis 0 0 0   XYZ
    dof ry rz
    limits (-20.0 10.0)
           (0.0 20.0)
  end
  begin
     id 18 
     name lhumerus
     direction 1 -0.000130264 -9.81312e-005   
     length 5.19964   
     axis 180 -30 -90   XYZ
    dof rx ry rz
    limits (-60.0 90.0)
           (-90.0 90.0)
           (-90.0 90.0)
  end
  begin
     id 19
     name lradius
     direction 1 -4.48961e-011 1.43854e-026   
     length 3.32189   
     axis 180 -30 -90   XYZ
    dof rx
    limits (-10.0 170.0)
  end
  begin
     id 20
     name lwrist
     direction 1 -4.48958e-011 3.1502e-026   
     length 1.66095   
     axis -1.97692e-014 90 90   XYZ
    dof ry
    limits (-180.0 0.0)
 end
  begin
     id 21 
     name lhand
     direction 1 -4.48927e-011 6.3004e-026   
     length 0.645616   
     axis -4.02019e-014 90 90   XYZ
    dof rx rz
    limits (-90.0 90.0)
           (-45.0 45.0)
  end
  begin
     id 22 
     name lfingers
     direction 1 -4.4904e-011 1.26008e-025   
     length 0.520512   
     axis -8.04039e-014 90 90   XYZ
    dof rx
    limits (0.0 90.0)
  end
  begin
     id 23
     name lthumb
     direction 0.707107 -6.34947e-011 0.707107   
     length 0.747354   
     axis -90 45 2.85299e-015   XYZ
    dof rx rz
    limits (-45.0 45.0)
           (-45.0 45.0)
  end
  begin
     id 24 
     name rclavicle
     direction -0.909391 0.383475 -0.161107   
     length 3.25176  
     axis 0 0 0   XYZ 
    dof ry rz
    limits (-10.0 20.0)
           (-20.0 0.0)
  end
  begin
     id 25 
     name rhumerus
     direction -1 -4.48965e-011 -1.81384e-027  
     length 5.6595   
     axis 180 30 90   XYZ
    dof rx ry rz
    limits (-90.0 60.0)
           (-90.0 90.0)
           (-90.0 90.0)
  end
  begin
     id 26 
     name rradius
     direction -1 -4.48996e-011 -8.09397e-027   
     length 3.37604   
     axis 180 30 90   XYZ
    dof rx
    limits (-10.0 170.0)
  end
  begin
     id 27 
     name rwrist
     direction -1 -4.48927e-011 -1.56669e-026   
     length 1.68802   
     axis 1.21142e-014 -90 -90   XYZ
    dof ry
    limits (-180.0 0.0)
  end
  begin
     id 28
     name rhand
     direction -1 -4.48912e-011 -3.13339e-026   
     length 0.824702   
     axis 1.99937e-014 -90 -90   XYZ
    dof rx rz
    limits (-90.0 90.0)
           (-45.0 45.0)
  end
  begin
     id 29
     name rfingers
     direction -1 -4.49011e-011 -6.26677e-026   
     length 0.664896   
     axis 3.99874e-014 -90 -90   XYZ
    dof rx
    limits (0.0 90.0)
  end
  begin
     id 30
     name rthumb
     direction -0.707107 -6.34931e-011 0.707107   
     length 0.954662   
     axis -90 -45 -2.85299e-015   XYZ
    dof rx rz
    limits (-45.0 45.0)
           (-45.0 45.0)
  end
:hierarchy
  begin
    root lhipjoint rhipjoint lowerback
    lhipjoint lfemur
    lfemur ltibia
    ltibia lfoot
    lfoot ltoes
    rhipjoint rfemur
    rfemur rtibia
    rtibia rfoot
    rfoot rtoes
    lowerback upperback
    upperback thorax
    thorax lowerneck lclavicle rclavicle
    lowerneck upperneck
    upperneck head
    lclavicle lhumerus
    lhumerus lradius
    lradius lwrist
    lwrist lhand lthumb
    lhand lfingers
    rclavicle rhumerus
    rhumerus rradius
    rradius rwrist
    rwrist rhand rthumb
    rhand rfingers
  end

#!OML:ASF F:\VICON\USERDATA\INSTALL\rory3\rory3.ASF
:FULLY-SPECIFIED
:DEGREES
126
root 13.9852 17.7248 -42.0999 6.2523 -33.7259 0.989946
lowerback 6.51314 -0.564946 -7.53566
upperback 0.585516 -1.20503 3.24173
thorax -2.82448 -0.499534 7.77812
lowerneck -13.0272 -1.76543 -13.2404
upperneck 21.8726 -0.990256 6.2186
head 9.12214 -0.933202 4.24591
rclavicle 3.00165e-014 1.11319e-014
rhumerus -38.1364 -20.3576 -66.1152
rradius 30.0085
rwrist -11.3437
rhand -10.6616 17.2863
rfingers 7.12502
rthumb 15.3465 -12.1242
lclavicle 3.00165e-014 1.11319e-014
lhumerus -29.2666 19.7617 70.9734
lradius 34.5994
lwrist -6.12757
lhand -6.46488 29.8223
lfingers 7.12502
lthumb 19.3854 58.876
rfemur -22.5681 7.22642 6.79905
rtibia 45.4267
rfoot -19.3265 2.98804
rtoes 13.0851
lfemur -18.5235 3.82574 -26.6052
ltibia 39.2974
lfoot -24.4491 11.8133
ltoes 6.13503
127
root 13.9946 17.7218 -42.077 6.26473 -34.0037 1.0981
lowerback 6.36627 -0.568083 -7.56656
upperback 0.692115 -1.20349 3.09645
thorax -2.63301 -0.511875 7.63319
lowerneck -13.0052 -1.75671 -12.9847
upperneck 21.5365 -1.02331 6.18616
head 9.00204 -0.919847 4.17942
rclavicle -6.95746e-015 -2.38542e-015
rhumerus -38.2017 -20.8582 -66.0182
rradius 29.9431
rwrist -10.9641
rhand -10.8099 17.0648
rfingers 7.12502
rthumb 15.2036 -12.3565
lclavicle -6.95746e-015 -2.38542e-015
lhumerus -28.9651 19.479 71.189
lradius 34.5168
lwrist -5.99327
lhand -6.57497 30.0651
lfingers 7.12502
lthumb 19.2796 59.1294
rfemur -22.827 7.30228 6.59813
rtibia 45.6808
rfoot -19.2004 3.09448
rtoes 13.2522
lfemur -18.5937 3.95382 -26.8237
ltibia 39.3982
lfoot -24.5704 11.9562
ltoes 6.28771
128
root 14.0032 17.7206 -42.0556 6.45137 -34.3142 0.97291
lowerback 6.49168 -0.602276 -7.43415
upperback 0.597602 -1.25259 2.99189
thorax -2.79843 -0.527011 7.45328
lowerneck -13.0381 -1.65026 -12.6555
upperneck 21.4534 -0.930495 6.12824
head 8.96538 -0.852898 4.11263
rclavicle -2.39536e-014 2.46493e-014
rhumerus -38.5056 -20.7531 -66.1282
rradius 30.0776
rwrist -10.9959
rhand -11.0079 17.0615
rfingers 7.12502
rthumb 15.0129 -12.3742
lclavicle -2.39536e-014 2.46493e-014
lhumerus -29.1305 19.2769 71.1664
lradius 34.635
lwrist -5.85404
lhand -6.76845 29.6872
lfingers 7.12502
lthumb 19.0935 58.77
rfemur -23.1331 7.45605 6.60854
rtibia 45.9199
rfoot -18.9508 3.11459
rtoes 12.3938
lfemur -18.773 4.19495 -26.8067
ltibia 39.5064
lfoot -24.6903 11.9981
ltoes 6.39313
129
root 14.012 17.7194 -42.036 6.60613 -34.4891 0.869585
lowerback 6.77177 -0.661653 -7.21039
upperback 0.396714 -1.34135 2.85217
thorax -3.15835 -0.551145 7.19357
lowerneck -13.0612 -1.5411 -12.38
upperneck 21.5302 -0.844313 6.14142
head 8.98324 -0.791514 4.0829
rclavicle -1.31894e-013 3.29983e-014
rhumerus -38.9437 -20.7377 -66.2023
rradius 30.2377
rwrist -11.2382
rhand -11.3487 17.2322
rfingers 7.12502
rthumb 14.6845 -12.2278
lclavicle -1.31894e-013 3.29983e-014
lhumerus -29.2356 18.9307 71.1174
lradius 34.6701
lwrist -5.47263
lhand -6.79091 29.46
lfingers 7.12502
lthumb 19.0719 58.5449
rfemur -23.3759 7.47409 6.63441
rtibia 46.1729
rfoot -18.657 3.07464
rtoes 10.8753
lfemur -18.8906 4.35774 -26.796
ltibia 39.5703
lfoot -24.7715 12.0082
ltoes 6.50087
130
root 14.0211 17.7165 -42.0153 6.62611 -34.6785 0.864267
lowerback 6.92724 -0.714603 -7.17795
upperback 0.266 -1.42338 2.80704
thorax -3.3702 -0.578647 7.14118
lowerneck -12.8287 -1.43097 -12.3421
upperneck 21.5007 -0.744288 6.19082
head 8.91823 -0.739394 4.10286
rclavicle 4.21423e-014 1.70955e-014
rhumerus -39.2054 -20.47 -66.339
rradius 30.4998
rwrist -12.1613
rhand -8.86217 17.784
rfingers 7.12502
rthumb 17.0791 -11.4853
lclavicle 4.21423e-014 1.70955e-014
lhumerus -29.4318 18.7538 71.2636
lradius 35.0029
lwrist -4.71609
lhand -6.03307 30.7106
lfingers 7.12502
lthumb 19.8006 59.722
rfemur -23.5596 7.5402 6.57313
rtibia 46.4258
rfoot -18.5541 3.16892
rtoes 10.4418
lfemur -18.8718 4.42626 -26.8889
ltibia 39.5942
lfoot -24.6305 12.2602
ltoes 5.98008
131
root 14.0258 17.717 -41.9906 6.55421 -34.9477 0.889724
lowerback 6.87858 -0.687881 -7.21963
upperback 0.367472 -1.38872 2.7271
thorax -3.24348 -0.570423 7.07282
lowerneck -12.81 -1.41668 -12.2644
upperneck 21.4229 -0.774993 6.33199
head 8.88904 -0.730752 4.13389
rclavicle -1.39149e-015 -1.55052e-014
rhumerus -39.4809 -21.5681 -65.506
rradius 30.1427
rwrist -9.57774
rhand -10.2826 17.5478
rfingers 7.12502
rthumb 15.7115 -11.8343
lclavicle -1.39149e-015 -1.55052e-014
lhumerus -29.2476 18.6129 71.577
lradius 35.0745
lwrist -4.14476
lhand -5.59599 32.0547
lfingers 7.12502
lthumb 20.2207 61.0222
rfemur -23.672 7.68979 6.48323
rtibia 46.6567
rfoot -18.4395 3.39437
rtoes 11.5923
lfemur -18.73 4.57505 -26.9844
ltibia 39.562
lfoot -24.1955 12.5117
ltoes 3.98578
132
root 14.0285 17.7202 -41.9687 6.59215 -34.9293 0.917112
lowerback 6.73403 -0.63365 -7.14118
upperback 0.619773 -1.30309 2.50709
thorax -2.91966 -0.552841 6.77583
lowerneck -13.5783 -1.5727 -11.8272
upperneck 21.5589 -1.04302 6.5566
head 9.10071 -0.788996 4.11769
rclavicle 6.65432e-014 -2.06736e-014
rhumerus -39.5638 -22.6983 -65.2843
rradius 30.1507
rwrist -8.704
rhand -9.60601 17.9548
rfingers 7.12502
rthumb 16.363 -11.3749
lclavicle 6.65432e-014 -2.06736e-014
lhumerus -28.1619 18.1458 71.9871
lradius 34.4254
lwrist -4.03187
lhand -5.92004 32.2146
lfingers 7.12502
lthumb 19.9092 61.2148
rfemur -23.7917 7.6597 6.44402
rtibia 46.8776
rfoot -18.2455 3.41265
rtoes 12.8751
lfemur -18.71 4.68125 -27.0216
ltibia 39.5042
lfoot -24.5541 12.0663
ltoes 5.93475
133
root 14.0357 17.7148 -41.9241 6.5537 -35.3705 0.690856
lowerback 6.59973 -0.385223 -6.73656
upperback 1.02333 -0.934196 2.26417
thorax -2.49574 -0.405056 6.24459
lowerneck -14.6978 -1.76379 -11.168
upperneck 21.8258 -1.36136 6.67415
head 9.42785 -0.859379 4.02407
rclavicle 6.4605e-015 8.54774e-015
rhumerus -39.4368 -23.3765 -65.7004
rradius 30.4744
rwrist -9.78755
rhand -10.0384 17.6745
rfingers 7.12502
rthumb 15.9467 -11.6891
lclavicle 6.4605e-015 8.54774e-015
lhumerus -27.12 17.6486 72.368
lradius 34.0981
lwrist -4.35651
lhand -5.6817 31.9531
lfingers 7.12502
lthumb 20.1383 60.9294
rfemur -23.7576 7.99203 6.52099
rtibia 47.064
rfoot -18.1158 3.66837
rtoes 13.5359
lfemur -18.3751 4.57479 -26.9803
ltibia 39.4358
lfoot -24.6317 12.6178
ltoes 5.89754
134
root 14.0454 17.7132 -41.8953 6.65833 -35.7991 0.493193
lowerback 6.48332 -0.47433 -6.67263
upperback 1.15173 -1.03702 2.35772
thorax -2.27988 -0.469765 6.31088
lowerneck -14.86 -1.62749 -11.2671
upperneck 21.7411 -1.11631 6.6471
head 9.4047 -0.752014 4.05978
rclavicle -4.7112e-014 1.27222e-014
rhumerus -38.9313 -22.1811 -66.6473
rradius 30.992
rwrist -12.6171
rhand -10.9975 16.8132
rfingers 7.12502
rthumb 15.0229 -12.6218
lclavicle -4.7112e-014 1.27222e-014
lhumerus -27.3763 18.1735 72.5131
lradius 34.4242
lwrist -4.70505
lhand -5.13481 31.7855
lfingers 7.12502
lthumb 20.6639 60.7055
rfemur -23.949 8.32892 6.56068
rtibia 47.2498
rfoot -17.8127 3.84647
rtoes 13.5888
lfemur -18.2624 4.50876 -26.9464
ltibia 39.3858
lfoot -24.5871 13.1266
ltoes 6.24446
135
root 14.0541 17.7158 -41.8712 6.70785 -36.234 0.625963
lowerback 6.2497 -0.984114 -7.26433
upperback 0.894968 -1.73408 2.83069
thorax -2.27325 -0.805017 7.20469
lowerneck -13.693 -1.00544 -12.3063
upperneck 21.2526 -0.0981919 6.47174
head 8.92141 -0.384859 4.26769
rclavicle -6.17226e-014 -1.11319e-014
rhumerus -38.5097 -19.4443 -67.1575
rradius 31.3098
rwrist -14.7432
rhand -11.3842 16.3847
rfingers 7.12502
rthumb 14.6503 -13.0777
lclavicle -6.17226e-014 -1.11319e-014
lhumerus -28.9787 20.11 72.3061
lradius 34.9093
lwrist -5.65551
lhand -4.72458 31.4373
lfingers 7.12502
lthumb 21.058 60.3139
rfemur -24.3053 8.57637 6.27429
rtibia 47.4441
rfoot -17.4292 4.03085
rtoes 14.1747
lfemur -18.305 4.44553 -27.2111
ltibia 39.3416
lfoot -24.7275 13.5172
ltoes 7.41896
136
root 14.062 17.7144 -41.8418 6.68972 -36.8005 0.716924
lowerback 6.09415 -0.836396 -7.43479
upperback 0.967617 -1.5373 2.7927
thorax -2.14153 -0.713834 7.24208
lowerneck -13.7067 -0.999259 -12.154
upperneck 21.0847 -0.0854913 6.32654
head 8.86565 -0.376293 4.18822
rclavicle -3.72721e-014 -1.66979e-014
rhumerus -38.5647 -19.4643 -67.1036
rradius 31.5064
rwrist -15.0859
rhand -11.3785 16.4302
rfingers 7.12502
rthumb 14.6559 -13.0319
lclavicle -3.72721e-014 -1.66979e-014
lhumerus -28.9518 20.9133 72.3096
lradius 35.1232
lwrist -8.54029
lhand -2.14673 32.1739
lfingers 7.12502
lthumb 23.5327 60.7543
rfemur -24.6131 8.87703 6.01947
rtibia 47.6709
rfoot -17.2518 4.30669
rtoes 14.979
lfemur -18.2666 4.60328 -27.4631
ltibia 39.3187
lfoot -24.8862 13.8704
ltoes 7.74639
137
root 14.0705 17.7135 -41.8188 6.71766 -37.1503 0.730905
lowerback 6.14336 -0.774999 -7.43448
upperback 0.977481 -1.46059 2.70829
thorax -2.17487 -0.674324 7.14762
lowerneck -13.777 -1.00701 -12.1626
upperneck 21.0392 -0.113428 6.45881
head 8.86449 -0.373767 4.23238
rclavicle 5.80451e-014 -6.36111e-015
rhumerus -38.6351 -19.471 -67.2103
rradius 31.7111
rwrist -15.2574
rhand -11.5074 16.3695
rfingers 7.12502
rthumb 14.5317 -13.1015
lclavicle 5.80451e-014 -6.36111e-015
lhumerus -28.8 20.2318 72.9881
lradius 34.841
lwrist -6.06652
lhand -5.37489 31.2535
lfingers 7.12502
lthumb 20.4332 60.1984
rfemur -24.8775 9.05212 5.90089
rtibia 47.905
rfoot -17.1943 4.50158
rtoes 15.1859
lfemur -18.2778 4.8511 -27.5951
ltibia 39.3377
lfoot -24.7905 13.9104
ltoes 7.41823
138
root 14.0787 17.7177 -41.8142 6.82434 -37.25 0.779862
lowerback 6.61412 -0.806807 -7.69066
upperback 0.722939 -1.55759 2.76888
thorax -2.67923 -0.687763 7.38743
lowerneck -13.7714 -1.04864 -12.2983
upperneck 21.0976 -0.140867 6.4504
head 8.88751 -0.400735 4.25055
rclavicle 6.62947e-014 -7.15625e-015
rhumerus -38.8808 -19.3999 -67.0588
rradius 31.8954
rwrist -15.3961
rhand -11.6636 16.2892
rfingers 7.12502
rthumb 14.3811 -13.1926
lclavicle 6.62947e-014 -7.15625e-015
lhumerus -28.8075 19.9378 73.3988
lradius 34.3152
lwrist -5.60582
lhand -5.56863 31.6743
lfingers 7.12502
lthumb 20.247 60.6391
rfemur -25.2 9.10499 5.81786
rtibia 48.143
rfoot -17.0963 4.53288
rtoes 15.2584
lfemur -18.4855 5.18104 -27.6592
ltibia 39.417
lfoot -24.8454 14.4761
ltoes 3.68409
139
root 14.0835 17.7208 -41.8066 6.93285 -37.659 0.576523
lowerback 7.54736 -0.763651 -8.37757
upperback 0.217561 -1.61793 3.32798
thorax -3.69015 -0.63509 8.44027
lowerneck -13.448 -0.998349 -12.8613
upperneck 21.2934 0.0636482 6.19708
head 8.88042 -0.389062 4.28018
rclavicle 1.83876e-014 -5.92378e-014
rhumerus -39.361 -18.4652 -66.269
rradius 32.097
rwrist -15.5606
rhand -11.7531 16.1515
rfingers 7.12502
rthumb 14.2949 -13.3364
lclavicle 1.83876e-014 -5.92378e-014
lhumerus -29.5697 20.5242 73.8947
lradius 33.9329
lwrist -6.36621
lhand -4.65806 31.8798
lfingers 7.12502
lthumb 21.1219 60.7493
rfemur -25.4291 9.47815 5.94839
rtibia 48.3631
rfoot -16.8986 4.45942
rtoes 15.6578
lfemur -18.5429 5.63428 -27.5195
ltibia 39.5247
lfoot -24.7776 13.799
ltoes 4.73701
140
root 14.0902 17.7224 -41.7929 7.02568 -38.0016 0.486683
lowerback 7.81134 -0.78437 -8.56642
upperback 0.0741636 -1.68196 3.44212
thorax -3.96913 -0.641599 8.69535
lowerneck -13.2557 -0.954046 -13.1254
upperneck 21.2752 0.128013 6.32044
head 8.83157 -0.369771 4.37198
rclavicle -4.86029e-014 1.59028e-014
rhumerus -39.5097 -18.2105 -66.1328
rradius 32.2825
rwrist -15.5995
rhand -11.6804 16.1682
rfingers 7.12502
rthumb 14.3649 -13.3148
lclavicle -4.86029e-014 1.59028e-014
lhumerus -29.778 20.849 74.0905
lradius 33.7535
lwrist -6.73253
lhand -4.34387 31.4161
lfingers 7.12502
lthumb 21.4237 60.2516
rfemur -25.6517 9.78846 5.94332
rtibia 48.5416
rfoot -16.5631 4.52408
rtoes 17.4464
lfemur -18.615 6.14069 -27.5036
ltibia 39.6038
lfoot -24.6883 14.1555
ltoes 3.17946
